<svg width="48" height="32" viewBox="0 0 48 32" fill="none" xmlns="http://www.w3.org/2000/svg">
<path d="M9.1351 21.7082H6.78259V19.3518H9.1351V21.7082ZM9.1351 18.4611H6.78259V7.25653H9.1351V18.4611Z" fill="#2E3192"/>
<path d="M10.2441 11.5111H12.5863V12.4844H12.6244C13.167 11.9186 13.872 11.3484 14.7432 11.3484C15.8522 11.3484 16.3772 12.1185 16.3772 13.4557V21.7085H14.035V14.3075C14.035 13.5385 13.7733 13.2937 13.3715 13.2937C13.0488 13.2937 12.7463 13.4774 12.5863 13.6829V21.7083H10.2441V11.5111Z" fill="#2E3192"/>
<path d="M21.4517 21.7065H23.6902V7.25653H21.3501V12.0761H21.3074C21.0284 11.6928 20.5181 11.3481 19.826 11.3481C18.1125 11.3481 17.3254 13.214 17.3254 16.5845C17.3254 19.9156 17.9337 21.867 19.6252 21.867C20.5591 21.867 20.9441 21.4192 21.4117 20.8889H21.452V21.7065H21.4517ZM21.3501 19.8321C21.226 20.0163 20.982 20.1587 20.6383 20.1587C19.9513 20.1587 19.826 19.6953 19.826 16.5647C19.826 13.3564 20.0114 12.9311 20.6991 12.9311C21.0027 12.9311 21.247 13.0738 21.3504 13.256V19.8321H21.3501Z" fill="#2E3192"/>
<path d="M24.8934 7.25653H27.2325V9.59707H24.8934V7.25653ZM24.8934 11.5111H27.2325V21.7082H24.8934V11.5111Z" fill="#2E3192"/>
<path d="M30.1931 14.6243C30.1931 13.351 30.4774 12.799 31.0415 12.799C31.5946 12.799 31.8745 13.3508 31.8745 14.6243C31.8745 15.8731 31.5946 16.4276 31.0415 16.4276C30.4772 16.4276 30.1931 15.8731 30.1931 14.6243ZM34.7119 10.2918C33.8222 10.3937 33.0085 11.022 32.6284 11.8311C32.0357 11.4089 31.5112 11.3481 31.0412 11.3481C29.1785 11.3481 28.0834 12.8808 28.0834 14.5197C28.0834 15.6899 28.3245 16.6912 29.3224 17.3735C28.5702 17.8186 27.9813 18.3678 27.9813 19.3208C27.9813 20.1572 28.6506 20.6656 29.383 20.8678V20.9116C28.4911 21.2572 27.5767 21.6564 27.5767 22.7765C27.5767 23.4275 28.3472 24.7435 31.0412 24.7435C33.7834 24.7435 34.7119 23.3022 34.7119 21.8572C34.7119 18.4281 29.9312 19.4859 29.9312 18.2432C29.9312 18.0407 29.969 17.8799 30.1535 17.7786C30.4144 17.8572 30.6975 17.8799 30.9819 17.8799C32.8267 17.8799 33.9786 16.3477 33.9786 14.5818C33.9786 13.7417 33.7836 13.1077 33.2941 12.499C33.4968 12.335 33.8017 12.2349 34.004 12.2349C34.1662 12.2349 34.4874 12.2747 34.7122 12.3573V10.2918H34.7119ZM32.7671 22.1753C32.7671 22.7972 32.1777 23.1588 31.126 23.1588C29.8882 23.1588 29.5232 22.8571 29.5232 22.3563C29.5232 21.6364 30.6218 21.3357 30.9819 21.2746C31.2318 21.2944 32.7671 21.5345 32.7671 22.1753Z" fill="#2E3192"/>
<path d="M41.2173 16.6087C41.2173 12.756 39.8022 11.3506 37.9871 11.3506C36.1681 11.3506 34.7546 12.756 34.7546 16.6087C34.7546 20.466 36.1683 21.8709 37.9871 21.8709C39.8022 21.8709 41.2173 20.466 41.2173 16.6087ZM38.7163 16.6087C38.7163 19.7107 38.5316 20.1587 37.9873 20.1587C37.4408 20.1587 37.2554 19.7107 37.2554 16.6087C37.2554 13.5055 37.4408 13.0611 37.9873 13.0611C38.5314 13.0609 38.7163 13.5055 38.7163 16.6087Z" fill="#2E3192"/>
<rect x="0.5" y="0.5" width="47" height="31" rx="3.5" stroke="#F6F6F6"/>
</svg>
