<svg width="24" height="24" viewBox="0 0 24 24" fill="none" xmlns="http://www.w3.org/2000/svg">
<path d="M6.75 20.25H20.25" stroke="white" stroke-width="1.5" stroke-linecap="round" stroke-linejoin="round"/>
<path d="M2.51251 7.5H4.12501L6.00001 9.75H9.00001L7.82814 6.23438C7.79108 6.12172 7.78126 6.00188 7.79949 5.8847C7.81773 5.76751 7.86349 5.65632 7.93303 5.56025C8.00256 5.46418 8.09389 5.38597 8.19951 5.33204C8.30514 5.2781 8.42204 5.24999 8.54064 5.25H10.125L14.25 9.75H19.5C20.2957 9.75 21.0587 10.0661 21.6213 10.6287C22.1839 11.1913 22.5 11.9544 22.5 12.75V15H5.98126C5.33695 14.999 4.71008 14.7906 4.19341 14.4057C3.67675 14.0207 3.29775 13.4796 3.11251 12.8625L1.79064 8.46563C1.75693 8.35335 1.75002 8.23473 1.77045 8.11929C1.79088 8.00386 1.83808 7.89482 1.90827 7.80093C1.97846 7.70703 2.06969 7.6309 2.17462 7.57864C2.27956 7.52638 2.39529 7.49945 2.51251 7.5V7.5Z" stroke="white" stroke-width="1.5" stroke-linecap="round" stroke-linejoin="round"/>
</svg>
