<svg width="13" height="13" viewBox="0 0 13 13" fill="none" xmlns="http://www.w3.org/2000/svg">
<path d="M12.48 1.17H9.75V0.13C9.75 0.0585 9.6915 0 9.62 0H8.71C8.6385 0 8.58 0.0585 8.58 0.13V1.17H4.42V0.13C4.42 0.0585 4.3615 0 4.29 0H3.38C3.3085 0 3.25 0.0585 3.25 0.13V1.17H0.52C0.232375 1.17 0 1.40238 0 1.69V12.48C0 12.7676 0.232375 13 0.52 13H12.48C12.7676 13 13 12.7676 13 12.48V1.69C13 1.40238 12.7676 1.17 12.48 1.17ZM11.83 11.83H1.17V5.655H11.83V11.83ZM1.17 4.55V2.34H3.25V3.12C3.25 3.1915 3.3085 3.25 3.38 3.25H4.29C4.3615 3.25 4.42 3.1915 4.42 3.12V2.34H8.58V3.12C8.58 3.1915 8.6385 3.25 8.71 3.25H9.62C9.6915 3.25 9.75 3.1915 9.75 3.12V2.34H11.83V4.55H1.17Z" fill="black" fill-opacity="0.25"/>
</svg>
