<svg width="12" height="12" viewBox="0 0 12 12" fill="none" xmlns="http://www.w3.org/2000/svg">
<path d="M8.83961 2.06621V1.03095C8.83961 0.941214 8.73648 0.89166 8.66684 0.946571L2.62935 5.66219C2.57805 5.70208 2.53654 5.75317 2.50799 5.81154C2.47944 5.86991 2.4646 5.93404 2.4646 5.99902C2.4646 6.064 2.47944 6.12813 2.50799 6.1865C2.53654 6.24488 2.57805 6.29596 2.62935 6.33585L8.66684 11.0515C8.73782 11.1064 8.83961 11.0568 8.83961 10.9671V9.93183C8.83961 9.8662 8.80881 9.80326 8.75791 9.76308L3.93649 5.99969L8.75791 2.23496C8.80881 2.19478 8.83961 2.13184 8.83961 2.06621Z" fill="black" fill-opacity="0.45"/>
</svg>
