<svg width="17" height="16" viewBox="0 0 17 16" fill="none" xmlns="http://www.w3.org/2000/svg">
<path fill-rule="evenodd" clip-rule="evenodd" d="M11.6631 0.00013446C12.1944 0.00013446 12.725 0.0750812 13.2294 0.244343C16.3376 1.25486 17.4576 4.66536 16.522 7.64639C15.9915 9.16974 15.1241 10.56 13.9881 11.696C12.362 13.2708 10.5776 14.6686 8.65678 15.8728L8.44626 16L8.22731 15.8644C6.29975 14.6686 4.50524 13.2708 2.86399 11.6876C1.73558 10.5516 0.867375 9.16974 0.328432 7.64639C-0.623139 4.66536 0.496852 1.25486 3.63872 0.226659C3.88293 0.142449 4.13472 0.0835022 4.38735 0.0506604H4.4884C4.72503 0.0161343 4.95997 0.00013446 5.19576 0.00013446H5.28839C5.81891 0.0161343 6.33259 0.108765 6.83027 0.278027H6.87996C6.91364 0.294027 6.9389 0.311711 6.95575 0.327711C7.14185 0.3875 7.31785 0.454867 7.48627 0.547498L7.80626 0.690655C7.88359 0.731894 7.97038 0.794906 8.04539 0.849364C8.09291 0.883869 8.13571 0.91494 8.16837 0.934863C8.18211 0.942972 8.19608 0.951126 8.21016 0.959346C8.28236 1.00149 8.35758 1.0454 8.421 1.09402C9.35657 0.379079 10.4926 -0.00828652 11.6631 0.00013446ZM13.9031 6.06324C14.2483 6.05398 14.5431 5.77693 14.5683 5.4224V5.32219C14.5936 4.14242 13.8786 3.07379 12.7915 2.66116C12.4462 2.54243 12.0673 2.72853 11.941 3.08221C11.8231 3.4359 12.0083 3.82326 12.362 3.94873C12.9018 4.15084 13.2631 4.6822 13.2631 5.27083V5.29693C13.2471 5.48977 13.3052 5.67588 13.4231 5.81903C13.541 5.96219 13.7178 6.04556 13.9031 6.06324Z" fill="#E74C3C"/>
</svg>
