<svg width="14" height="14" viewBox="0 0 14 14" fill="none" xmlns="http://www.w3.org/2000/svg">
<path d="M9.04167 8.16679H8.58083L8.4175 8.00929C8.98917 7.34429 9.33333 6.48096 9.33333 5.54179C9.33333 3.44762 7.63583 1.75012 5.54167 1.75012C3.4475 1.75012 1.75 3.44762 1.75 5.54179C1.75 7.63596 3.4475 9.33346 5.54167 9.33346C6.48083 9.33346 7.34417 8.98929 8.00917 8.41762L8.16667 8.58096V9.04179L11.0833 11.9526L11.9525 11.0835L9.04167 8.16679ZM5.54167 8.16679C4.08917 8.16679 2.91667 6.99429 2.91667 5.54179C2.91667 4.08929 4.08917 2.91679 5.54167 2.91679C6.99417 2.91679 8.16667 4.08929 8.16667 5.54179C8.16667 6.99429 6.99417 8.16679 5.54167 8.16679Z" fill="white"/>
</svg>
