<svg width="18" height="8" viewBox="0 0 18 8" fill="none" xmlns="http://www.w3.org/2000/svg">
<path d="M0.514286 3.27292C0.230254 3.27292 0 3.50317 0 3.78721C0 4.07124 0.230254 4.30149 0.514286 4.30149V3.27292ZM17.8494 4.15086C18.0502 3.95002 18.0502 3.62439 17.8494 3.42355L14.5765 0.150658C14.3756 -0.0501832 14.05 -0.0501832 13.8492 0.150658C13.6483 0.351499 13.6483 0.677127 13.8492 0.877968L16.7584 3.78721L13.8492 6.69645C13.6483 6.89729 13.6483 7.22292 13.8492 7.42376C14.05 7.6246 14.3756 7.6246 14.5765 7.42376L17.8494 4.15086ZM0.514286 4.30149H17.4857V3.27292H0.514286V4.30149Z" fill="black"/>
</svg>
