<svg width="14" height="14" viewBox="0 0 14 14" fill="none" xmlns="http://www.w3.org/2000/svg">
<path d="M12.9404 6.90437L7.30894 1.27703C7.26839 1.2364 7.22023 1.20417 7.16721 1.18218C7.11419 1.16018 7.05735 1.14886 6.99995 1.14886C6.94255 1.14886 6.88572 1.16018 6.8327 1.18218C6.77968 1.20417 6.73151 1.2364 6.69097 1.27703L1.05952 6.90437C0.895459 7.06843 0.80249 7.29129 0.80249 7.52371C0.80249 8.00632 1.19487 8.39871 1.67749 8.39871H2.27085V12.4141C2.27085 12.6561 2.46636 12.8516 2.70835 12.8516H6.12495V9.78914H7.6562V12.8516H11.2916C11.5335 12.8516 11.7291 12.6561 11.7291 12.4141V8.39871H12.3224C12.5548 8.39871 12.7777 8.30711 12.9417 8.14168C13.2822 7.79988 13.2822 7.24617 12.9404 6.90437Z" fill="black" fill-opacity="0.85"/>
</svg>
