<svg width="14" height="14" viewBox="0 0 14 14" fill="none" xmlns="http://www.w3.org/2000/svg">
<path d="M6.99996 1.16678C3.77996 1.16678 1.16663 3.78011 1.16663 7.00011C1.16663 10.2201 3.77996 12.8334 6.99996 12.8334C10.22 12.8334 12.8333 10.2201 12.8333 7.00011C12.8333 3.78011 10.22 1.16678 6.99996 1.16678ZM6.99996 2.91678C7.96829 2.91678 8.74996 3.69845 8.74996 4.66678C8.74996 5.63511 7.96829 6.41678 6.99996 6.41678C6.03163 6.41678 5.24996 5.63511 5.24996 4.66678C5.24996 3.69845 6.03163 2.91678 6.99996 2.91678ZM6.99996 11.2001C5.54163 11.2001 4.25246 10.4534 3.49996 9.32178C3.51746 8.16094 5.83329 7.52511 6.99996 7.52511C8.16079 7.52511 10.4825 8.16094 10.5 9.32178C9.74746 10.4534 8.45829 11.2001 6.99996 11.2001Z" fill="black" fill-opacity="0.45"/>
</svg>
