<svg width="14" height="14" viewBox="0 0 14 14" fill="none" xmlns="http://www.w3.org/2000/svg">
<path d="M9.91667 6.41679V1.75012H4.08333V4.08346H1.75V12.2501H6.41667V9.91679H7.58333V12.2501H12.25V6.41679H9.91667ZM4.08333 11.0835H2.91667V9.91679H4.08333V11.0835ZM4.08333 8.75012H2.91667V7.58346H4.08333V8.75012ZM4.08333 6.41679H2.91667V5.25012H4.08333V6.41679ZM6.41667 8.75012H5.25V7.58346H6.41667V8.75012ZM6.41667 6.41679H5.25V5.25012H6.41667V6.41679ZM6.41667 4.08346H5.25V2.91679H6.41667V4.08346ZM8.75 8.75012H7.58333V7.58346H8.75V8.75012ZM8.75 6.41679H7.58333V5.25012H8.75V6.41679ZM8.75 4.08346H7.58333V2.91679H8.75V4.08346ZM11.0833 11.0835H9.91667V9.91679H11.0833V11.0835ZM11.0833 8.75012H9.91667V7.58346H11.0833V8.75012Z" fill="black" fill-opacity="0.85"/>
</svg>
