<svg width="48" height="32" viewBox="0 0 48 32" fill="none" xmlns="http://www.w3.org/2000/svg">
<path d="M37.2543 19.047L36.9544 18.6709C36.7549 18.8697 36.4902 19.0803 36.2228 19.0803C35.7352 19.0803 35.6583 18.5919 35.6583 18.0606V15.1136H36.9433V14.5165H35.6479V13.0202H35.1602C34.7722 13.8944 34.2735 14.4264 33.287 14.5927V15.0915H33.9423V17.4856C33.943 18.1042 33.9645 18.5143 34.0525 18.8136C34.2735 19.568 34.8949 19.8444 35.6264 19.8444C36.2235 19.8437 36.7334 19.6102 37.2543 19.047ZM32.1606 12.1695C31.4727 12.3351 30.284 12.457 29.9639 12.457V13.0541C30.2196 13.0541 30.4738 13.0423 30.6844 13.0209V19.0914H29.93V19.6878H33.2094V19.0914H32.4225V12.3787C32.4232 12.193 32.3109 12.1556 32.2583 12.1556C32.2282 12.1561 32.1982 12.1598 32.1689 12.1667L32.1606 12.1695Z" fill="#3B4095"/>
<path d="M29.7547 16.8635C29.7547 15.478 28.7461 14.4382 27.1847 14.4389C25.6676 14.4389 24.4913 15.5009 24.492 17.0852C24.492 18.7152 25.7888 19.8437 27.3835 19.8437C28.4365 19.8437 29.222 19.2673 29.7333 18.4921L29.1895 18.0599C28.9692 18.4596 28.3132 19.1128 27.6606 19.1128C26.6076 19.1128 26.3541 18.204 26.3534 17.2175V17.1849H29.5435C29.7333 17.1849 29.7554 17.1517 29.7547 16.8635ZM28.0271 16.2982C28.0271 16.3876 28.0153 16.4763 28.016 16.4319H26.3541C26.3541 16.0551 26.5203 14.9702 27.2519 14.9702C27.8712 14.9702 28.0271 15.5009 28.0271 16.2982Z" fill="#234B8D"/>
<path d="M43.2916 18.88L42.8697 18.5918C42.7935 18.7366 42.6598 18.9576 42.4818 18.9576C42.2726 18.9576 42.2275 18.8572 42.2275 18.436V16.5434C42.2275 16.1991 42.2275 15.8444 42.1271 15.5008C41.8507 14.6141 40.8642 14.4382 40.0551 14.4382C39.4788 14.4389 38.8477 14.5386 38.3163 14.7707C37.8841 14.9591 37.4961 15.2244 37.4961 15.6338C37.4961 16.089 37.7954 16.2435 38.1175 16.2428C38.5048 16.2428 38.7929 15.9671 38.7929 15.7121C38.7929 15.2244 38.9592 15.0242 39.6893 15.0242C40.3204 15.0242 40.5082 15.39 40.5096 15.9996C40.5096 16.4201 40.4978 16.4762 40.3315 16.4762C39.7898 16.4762 38.9911 16.6099 38.4708 16.8524C37.8938 17.1406 37.395 17.6061 37.3964 18.3161C37.395 19.2112 38.094 19.8436 38.9911 19.8436C39.5993 19.8436 40.1653 19.5236 40.5754 19.1017C40.7631 19.6109 41.1725 19.8436 41.7156 19.8436C42.4368 19.8436 42.9584 19.5236 43.2916 18.88ZM40.4881 18.481C40.3662 18.6473 40.1119 18.9244 39.7025 18.9244C39.2702 18.9244 38.9821 18.5801 38.9821 18.161C38.9821 17.3733 39.7905 17.0734 40.4881 16.9868V18.481ZM23.9939 15.9885C23.9939 13.7621 22.5094 12.4334 20.0398 12.4334C19.0755 12.4334 18.2227 12.4777 17.7794 12.4777L16.4084 12.477V13.1067H17.3693V19.0685H16.3745V19.6885H20.1167C22.4096 19.6885 23.9939 18.1824 23.9939 15.9885ZM22.0439 15.9338C22.0439 17.8735 21.135 19.0685 19.6622 19.0685H19.2417V13.1199C19.4731 13.0756 19.5625 13.0756 19.7516 13.0756C21.2465 13.0756 22.0439 13.9616 22.0439 15.9338ZM14.9461 19.4377C15.0517 19.4374 15.1529 19.3952 15.2274 19.3203C15.3019 19.2454 15.3436 19.144 15.3433 19.0383C15.3431 18.9327 15.3008 18.8315 15.2259 18.757C15.151 18.6825 15.0496 18.6408 14.944 18.641C14.8383 18.6413 14.7371 18.6835 14.6626 18.7584C14.5881 18.8333 14.5464 18.9348 14.5467 19.0404C14.547 19.146 14.5892 19.2472 14.6641 19.3217C14.739 19.3963 14.8404 19.438 14.9461 19.4377ZM14.9461 19.3622C14.9038 19.3623 14.8619 19.354 14.8227 19.3379C14.7836 19.3218 14.7481 19.2982 14.7181 19.2683C14.6881 19.2385 14.6643 19.203 14.648 19.164C14.6318 19.1249 14.6233 19.083 14.6232 19.0407C14.6232 18.9984 14.6314 18.9565 14.6475 18.9174C14.6636 18.8783 14.6873 18.8427 14.7171 18.8128C14.7469 18.7828 14.7824 18.759 14.8215 18.7427C14.8605 18.7264 14.9024 18.718 14.9447 18.7179C15.0301 18.7177 15.1121 18.7515 15.1727 18.8118C15.2332 18.8721 15.2673 18.9539 15.2675 19.0394C15.2677 19.1248 15.2339 19.2068 15.1736 19.2673C15.1134 19.3279 15.0315 19.362 14.9461 19.3622ZM15.0403 19.0754C15.1165 19.0698 15.1573 19.0373 15.1573 18.959C15.1573 18.914 15.1456 18.8717 15.1061 18.8468C15.0742 18.8274 15.0257 18.8274 14.9904 18.8274H14.7833V19.2548L14.8657 19.2555V19.0754H14.9509L15.0465 19.2555L15.1449 19.2548L15.0403 19.0754ZM14.8657 19.0103V18.8883L14.9703 18.889C15.0126 18.889 15.0735 18.8883 15.0735 18.9458C15.0735 18.9999 15.0396 19.0116 14.9918 19.011H14.8657V19.0103Z" fill="#3B4095"/>
<path d="M14.3634 19.6269C14.3648 19.6026 14.3503 19.5791 14.3101 19.5631C12.9413 18.9708 11.2433 18.425 9.54613 18.425H9.52466C7.82744 18.425 6.13023 18.9708 4.76276 19.5624C4.72328 19.5791 4.70873 19.6026 4.70873 19.6269C4.70527 19.6601 4.73298 19.6899 4.76138 19.6899H14.3087C14.3371 19.6899 14.3669 19.6608 14.3634 19.6269Z" fill="#B01842"/>
<path d="M9.53504 17.4496C8.01447 17.4516 6.52924 18.0924 4.96088 18.9244L4.87567 18.968C4.86225 18.9753 4.84726 18.9791 4.83203 18.9791C4.80667 18.9786 4.78253 18.9681 4.76479 18.95C4.74705 18.9319 4.73712 18.9075 4.73712 18.8821C4.73717 18.8623 4.74374 18.8431 4.75583 18.8274L4.79947 18.7623C5.22135 18.1402 8.60885 13.4698 9.37432 12.3496C9.4242 12.2734 9.47339 12.2415 9.53504 12.2415C9.59669 12.2415 9.64588 12.2734 9.69783 12.3496C10.4612 13.4698 13.8487 18.1402 14.272 18.7623L14.317 18.8267C14.3289 18.8425 14.3352 18.8617 14.335 18.8815C14.3349 18.8978 14.3307 18.9139 14.3227 18.9282C14.3147 18.9424 14.3032 18.9545 14.2893 18.9631C14.2754 18.9718 14.2595 18.9767 14.2432 18.9776C14.2268 18.9785 14.2105 18.9752 14.1958 18.968L14.1099 18.9237C12.5408 18.0924 11.0577 17.4482 9.53504 17.4496Z" fill="#3B4095"/>
<rect x="0.5" y="0.5" width="47" height="31" rx="3.5" stroke="#F6F6F6"/>
</svg>
