<svg width="20" height="20" viewBox="0 0 20 20" fill="none" xmlns="http://www.w3.org/2000/svg">
<path d="M17.7363 6.89648L12.7774 6.17578L10.5606 1.68164C10.5 1.55859 10.4004 1.45898 10.2773 1.39844C9.96876 1.24609 9.59376 1.37305 9.43946 1.68164L7.22266 6.17578L2.26368 6.89648C2.12696 6.91602 2.00196 6.98047 1.90626 7.07812C1.79056 7.19704 1.7268 7.35703 1.729 7.52293C1.7312 7.68883 1.79917 7.84708 1.91797 7.96289L5.50587 11.4609L4.65821 16.4004C4.63833 16.5153 4.65105 16.6335 4.69491 16.7415C4.73878 16.8496 4.81204 16.9431 4.90639 17.0117C5.00074 17.0802 5.1124 17.1209 5.22872 17.1292C5.34503 17.1375 5.46134 17.113 5.56446 17.0586L10 14.7266L14.4356 17.0586C14.5566 17.123 14.6973 17.1445 14.832 17.1211C15.1719 17.0625 15.4004 16.7402 15.3418 16.4004L14.4941 11.4609L18.082 7.96289C18.1797 7.86719 18.2441 7.74219 18.2637 7.60547C18.3164 7.26367 18.0781 6.94727 17.7363 6.89648Z" fill="#FFD33C"/>
</svg>
