<svg width="24" height="24" viewBox="0 0 24 24" fill="none" xmlns="http://www.w3.org/2000/svg">
<path d="M21.75 12C21.75 13.2337 20.7337 14.25 19.5 14.25H13.992L11.1795 20.5545L10.992 21H7.40625L8.15625 14.25H6.77325L5.48475 16.1722L5.27325 16.5H2.08575L2.27325 15.609L3 12L2.27325 8.39025L2.08575 7.5H5.27325L5.48475 7.8285L6.7725 9.75L8.1555 9.75L7.4055 3H10.9913L11.1788 3.4455L13.992 9.75H19.5C20.7337 9.75 21.75 10.7662 21.75 12ZM20.25 12C20.25 11.5755 19.9245 11.25 19.5 11.25H13.008L12.8205 10.8045L10.008 4.5H9.09375L9.84375 11.25L5.95275 11.25L5.74275 10.9215L4.452 9H3.9135L4.476 11.8597L4.5225 12L4.476 12.141L3.9135 15H4.452L5.742 13.0778L5.952 12.75L9.843 12.75L9.093 19.5H10.0072L12.8197 13.1955L13.0072 12.75H19.5C19.9245 12.75 20.25 12.4245 20.25 12Z" fill="black"/>
</svg>
