<svg width="48" height="32" viewBox="0 0 48 32" fill="none" xmlns="http://www.w3.org/2000/svg">
<path d="M29.5225 14.3933C29.5225 14.9118 29.6219 15.0884 29.98 15.0807V15.2408C29.98 15.2408 29.9592 15.2381 29.3782 15.2381C29.0329 15.2381 28.1021 15.3277 27.8964 15.327C26.2907 15.3233 25.9933 14.4097 25.9933 13.6445C25.9933 12.6819 26.6156 11.9586 27.5433 11.9586C28.0602 11.9586 28.2434 12.1046 28.4472 12.3281V11.5834C28.4186 11.3521 28.5022 11.0124 27.9561 10.999V10.8594L29.3762 10.7688H29.5225V14.3933ZM28.4472 12.7396C28.2649 12.3956 28.0602 12.1808 27.7068 12.1808C27.2047 12.1808 27.0701 12.8121 27.0701 13.5871C27.0701 14.7306 27.3792 15.1377 27.8615 15.1377C28.3992 15.1377 28.4472 14.8269 28.4472 14.3439V12.7396Z" fill="#275DA6"/>
<path d="M23.9165 11.9657C25.1879 11.9687 25.5742 12.9011 25.6034 13.4334L23.3288 13.429C23.2986 14.0782 23.6433 14.8001 24.4351 14.8018C24.959 14.8028 25.2359 14.4504 25.3675 14.2174L25.5494 14.303C25.351 14.7769 24.8328 15.3391 23.8957 15.3348C23.0687 15.3311 22.2347 14.7722 22.237 13.6492C22.2387 12.4987 23.1677 11.9637 23.9165 11.9657ZM23.9306 12.2238C23.4678 12.2238 23.3328 12.7252 23.3295 13.1041C23.3295 13.1041 24.5076 13.1051 24.5059 13.1041C24.5311 12.7547 24.3904 12.2238 23.9306 12.2238ZM24.966 18.2789C24.5032 18.2783 24.3683 18.78 24.3646 19.1586C24.3646 19.1586 25.5427 19.16 25.5406 19.1586C25.5662 18.8103 25.4255 18.2789 24.966 18.2789ZM24.9486 18.0202C26.2196 18.0208 26.608 18.9529 26.6378 19.4849H24.3636C24.3347 20.1343 24.6804 20.8559 25.4725 20.8559C25.9961 20.8559 26.2727 20.5022 26.4036 20.2693L26.5855 20.3545C26.3885 20.8288 25.8712 21.3923 24.9342 21.3899C24.1072 21.3876 23.2721 20.8308 23.2721 19.7071C23.2721 18.5565 24.1998 18.0195 24.9486 18.0202Z" fill="#275DA6"/>
<path d="M18.8333 18.2245C19.1307 18.2141 20.3329 18.1023 20.3329 18.1023L20.3393 18.595C20.7373 18.3195 21.1609 18.0255 21.662 18.1174C22.4031 18.2537 22.5467 18.8592 22.5454 19.266C22.5454 19.266 22.5447 20.5065 22.5454 20.6608C22.5467 20.8485 22.633 21.1035 22.969 21.1039C22.9683 21.1035 22.9693 21.2589 22.9693 21.2589H21.0542V21.1029C21.2311 21.1035 21.4871 21.0381 21.4885 20.6374C21.4888 20.4118 21.4878 19.5754 21.4885 19.2824C21.4888 18.9894 21.3593 18.8021 21.1542 18.7219C20.8431 18.5997 20.5413 18.7786 20.3426 18.9807L20.343 20.6327C20.343 20.8206 20.394 21.1035 20.7649 21.1032L20.7639 21.26H18.8692C18.8692 21.26 18.8699 21.1526 18.8692 21.1032C19.0817 21.1035 19.2921 20.9978 19.2931 20.6202C19.2931 20.6202 19.2924 19.0595 19.2931 18.8605C19.2941 18.5138 19.2109 18.3658 18.8336 18.3688C18.8333 18.3722 18.8333 18.2248 18.8333 18.2245ZM8.85724 21.0982C8.35211 21.1099 8.28532 20.5457 8.13529 20.201L6.92936 16.9877L6.13693 16.9857L4.79272 20.442C4.68934 20.6622 4.5863 20.9106 4.35606 21.0468C4.29934 21.1324 4.05835 21.1089 4.05835 21.1089L4.05936 21.2526L5.58515 21.2553L5.58347 21.114C5.43646 21.1153 5.28912 21.0884 5.20353 20.9404C5.10183 20.5528 5.31631 20.1903 5.44653 19.8426H6.80686L7.07973 20.5917C7.10188 20.7192 7.14517 20.874 7.04784 20.9733C6.94379 21.1019 6.78974 21.0898 6.64944 21.119L6.65079 21.2492L8.80656 21.2549M5.57642 19.4808L6.13861 18.0053L6.67025 19.4808H5.57642ZM11.1704 21.1072C11.1704 21.1072 11.3674 21.1153 11.4201 21.0559C11.5739 20.9841 11.6165 20.83 11.6363 20.6813L11.638 18.6148C11.5373 18.3248 11.3426 18.3349 11.1812 18.3148C11.1946 18.2721 11.1875 18.2235 11.1872 18.1805L12.6747 18.1077L12.6731 18.9521C12.9644 18.5893 13.2772 17.9217 13.8679 18.1073L14.079 18.1902C14.026 18.5373 13.9377 18.9058 13.8639 19.2599C13.5961 19.0854 13.2641 18.8269 12.9365 19.0491C12.8234 19.1333 12.732 19.2432 12.6697 19.3697L12.6711 20.6652C12.6821 20.8418 12.7486 20.9931 12.8768 21.0552C12.9916 21.1109 13.1255 21.1039 13.1255 21.1039L13.1178 21.2526L11.1674 21.2489L11.1704 21.1072Z" fill="#275DA6"/>
<path d="M8.86428 21.0982C9.17675 21.0976 9.27375 20.9224 9.27375 20.4968C9.27308 20.4917 9.27375 18.83 9.27375 18.83C9.27275 18.7595 9.28617 18.538 9.16434 18.4276C9.07304 18.345 8.93778 18.3215 8.81796 18.3199V18.1742L10.3105 18.103C10.3105 18.103 10.3112 20.5072 10.3105 20.5015C10.3095 21.0627 10.5498 21.0969 10.7532 21.0969V21.255H8.8136M14.0716 21.1003C14.2636 21.0952 14.5566 21.0529 14.5566 20.5894C14.5566 20.4629 14.5576 17.9064 14.5566 17.5211C14.556 17.2203 14.4653 17.0434 14.071 17.0737V16.9172L15.631 16.791C15.631 16.791 15.6273 19.855 15.631 20.5837C15.6337 21.022 15.8324 21.1039 16.0948 21.1029C16.0935 21.1039 16.0948 21.2593 16.0948 21.2593H14.0716C14.0716 21.2593 14.0696 21.0996 14.0716 21.1003ZM16.4815 21.0976C16.794 21.0972 16.9202 20.9237 16.9198 20.5008V18.8461C16.9195 18.7763 16.9326 18.5568 16.8104 18.4474C16.7195 18.3658 16.5839 18.342 16.464 18.3403V18.196L17.9576 18.1259C17.9576 18.1259 17.9583 20.0527 17.9576 20.5055C17.9563 21.063 18.1973 21.0972 18.4003 21.0969V21.2536L16.4815 21.254V21.0976ZM17.4062 17.759C17.7287 17.759 17.9898 17.5056 17.9898 17.1928C17.9898 16.8803 17.7287 16.6273 17.4062 16.6273C17.084 16.6273 16.8228 16.8803 16.8228 17.1928C16.8228 17.5053 17.084 17.759 17.4062 17.759Z" fill="#275DA6"/>
<path d="M9.77281 17.759C10.0947 17.759 10.3558 17.5056 10.3558 17.1928C10.3558 16.8803 10.0947 16.6273 9.77281 16.6273C9.45061 16.6273 9.18915 16.8803 9.18915 17.1928C9.18948 17.5053 9.45061 17.759 9.77281 17.759ZM27.2137 20.147C27.454 20.0672 27.3714 20.3796 27.5 20.4706C27.7655 20.8586 28.1723 21.2093 28.6673 21.0986C28.7804 21.0476 28.914 20.9757 28.9701 20.8549C28.9988 20.7724 29.0037 20.6835 28.9841 20.5984C28.9645 20.5133 28.9212 20.4355 28.8593 20.3739C28.3173 19.9608 27.3117 20.0262 27.2332 19.1334C27.209 18.7934 27.3479 18.5021 27.6084 18.2944C28.0867 17.9282 28.86 18.0208 29.3933 18.2007C29.5635 18.2484 29.6037 18.0141 29.7672 18.0628L29.8041 19.0405L29.6625 19.0492C29.5319 18.7166 29.2033 18.3726 28.8549 18.2688C28.6848 18.2208 28.4582 18.237 28.3025 18.3091C28.1971 18.3746 28.1061 18.481 28.1068 18.6085C28.1011 18.7579 28.1803 18.8844 28.3082 18.9616C28.9271 19.218 29.9343 19.3513 29.9635 20.2508C29.9807 20.5834 29.8343 20.8616 29.5813 21.069C29.0818 21.5272 28.2303 21.3714 27.6547 21.1855C27.5557 21.1721 27.4637 21.2154 27.4221 21.308V21.3292L27.2879 21.3375C27.2484 20.9418 27.2237 20.5447 27.2137 20.147Z" fill="#275DA6"/>
<path d="M42.7063 10.8281V21.2311H40.5512C41.0063 20.0359 41.109 18.5581 40.7878 17.2622C40.3985 15.6156 39.3207 14.0506 37.7933 13.0846C36.3507 12.166 34.5182 11.8042 32.7161 12.1764L32.3016 12.2771V10.8281H42.7063ZM35.1656 12.4597C34.6128 12.1542 33.8845 12.1103 33.2317 12.221L33.4626 12.2472L33.4955 12.2318C33.7979 12.2096 34.1157 12.2197 34.3977 12.2811C34.3054 12.307 34.1473 12.3596 34.0358 12.406C34.0979 12.4291 34.1782 12.4697 34.2335 12.5046C34.3957 12.4508 34.5606 12.4056 34.7276 12.369C34.8363 12.4026 35.1179 12.5318 35.2928 12.6604C35.086 12.6819 34.8038 12.7225 34.5769 12.7748C34.6302 12.8225 34.6766 12.8775 34.7158 12.9393C34.9869 12.8911 35.261 12.8615 35.5361 12.8507C35.6774 12.9728 35.7922 13.1195 35.8708 13.2716C35.5653 13.2504 35.1579 13.2561 34.9092 13.2826C34.934 13.3279 34.9699 13.4411 34.9854 13.5102C35.2941 13.4968 35.7993 13.5189 36.0104 13.5498C36.0799 13.7173 36.1201 13.8965 36.1359 14.0855C35.7818 14.0153 35.3663 13.9569 35.0414 13.9415C35.0451 14.0459 35.0407 14.1459 35.0313 14.2442C35.4176 14.2838 35.7926 14.3536 36.1557 14.448C36.1513 14.6326 36.1245 14.8618 36.0748 15.039C35.703 14.9088 35.3231 14.8025 34.9377 14.7208C34.899 14.8816 34.8457 15.0384 34.7783 15.1894C35.1589 15.3162 35.5351 15.482 35.8956 15.6603C35.8351 15.8346 35.7598 16.0033 35.6704 16.1647C35.3096 15.963 34.9387 15.7643 34.5708 15.6076C34.4558 15.8155 34.3267 16.0153 34.1845 16.2057C34.5406 16.4247 34.8858 16.6608 35.219 16.9132C35.1176 17.0605 34.9736 17.2381 34.8853 17.3441C34.5635 17.076 33.9016 16.5484 33.9016 16.5484C33.7052 16.784 33.5391 16.9592 33.2934 17.1481C33.5899 17.4535 33.8735 17.7711 34.1436 18.1C34.0345 18.2151 33.9134 18.3183 33.7824 18.4078C33.5129 18.0767 33.2514 17.7392 32.9981 17.3955C32.7332 17.6033 32.5715 17.716 32.3016 17.8563V18.2447L32.7316 19.1056C32.6358 19.1659 32.5349 19.2175 32.4298 19.2596L32.3016 19.0092V19.4617C33.9607 18.7243 35.6479 17.1001 36.1393 15.335C36.3188 14.7259 36.351 13.9405 36.057 13.3723C35.8845 12.9987 35.5351 12.65 35.1656 12.4597ZM34.9186 12.2039C34.9907 12.2271 35.0599 12.2596 35.1287 12.2898L35.1676 12.2831C35.5166 12.3405 35.8535 12.4562 36.1641 12.6255C35.9993 12.6265 35.8285 12.6241 35.664 12.6372C35.7331 12.6996 35.8056 12.7715 35.8657 12.8369C36.0825 12.8326 36.2994 12.8374 36.5158 12.8513C36.7263 13.0061 36.9411 13.2138 37.0609 13.4273C36.7682 13.365 36.4718 13.3214 36.1735 13.2967C36.2131 13.3867 36.2524 13.4797 36.2859 13.575C36.6216 13.6243 36.9549 13.6854 37.2787 13.7676C37.3848 13.9888 37.4667 14.2224 37.5009 14.4681C37.1441 14.3406 36.7776 14.2201 36.4027 14.1439C36.4125 14.2637 36.4128 14.3896 36.4138 14.5124C36.8011 14.6248 37.1791 14.7544 37.5456 14.9205C37.5484 15.1598 37.5214 15.3985 37.4653 15.6311C37.0958 15.4471 36.7206 15.2662 36.3299 15.1333C36.2803 15.3502 36.2164 15.5636 36.1386 15.772C36.5138 15.9657 36.8867 16.1614 37.2415 16.393C37.1691 16.5966 37.0757 16.7922 36.9629 16.9766C36.6142 16.7387 36.2655 16.5067 35.9016 16.304C35.7735 16.5734 35.6172 16.8284 35.4354 17.0649C35.76 17.3213 36.0913 17.5861 36.4044 17.8694C36.2867 18.0457 36.1543 18.2118 36.0087 18.3658C35.7801 18.1255 35.4002 17.7845 35.084 17.5163C34.8598 17.7879 34.5943 18.0869 34.3275 18.3094C34.5309 18.5232 35.1354 19.2519 35.1354 19.2519C35.0142 19.3724 34.8642 19.4959 34.7085 19.6077C34.7085 19.6077 34.0926 18.8159 33.9395 18.6259C33.575 18.9152 33.2823 19.118 32.8558 19.3445C33.0263 19.6332 33.4455 20.4142 33.4455 20.4142C33.3377 20.4806 33.2239 20.5427 33.1108 20.584C32.9135 20.2548 32.6752 19.7775 32.5476 19.505C32.4251 19.5724 32.3016 19.6157 32.3016 19.6157V21.0391C33.5881 20.6219 34.7729 19.8829 35.7771 18.8135C36.6917 17.8228 37.4143 16.7524 37.6295 15.474C37.8006 14.454 37.463 13.4944 36.6538 12.8446C36.1631 12.4251 35.5543 12.2781 34.9186 12.2039ZM34.4906 12.8836C33.9271 12.313 33.0622 12.266 32.3016 12.4452V12.5144C32.4835 12.4735 32.6691 12.4514 32.8554 12.4483C32.7333 12.5244 32.6166 12.6091 32.5064 12.7017C32.5523 12.7117 32.6013 12.7268 32.6443 12.7456C32.7974 12.6355 32.9566 12.5338 33.1209 12.4412C33.3005 12.4419 33.5334 12.4758 33.6858 12.5365C33.4354 12.6268 33.1316 12.7658 32.9356 12.897C32.9735 12.9186 33.0079 12.9458 33.0377 12.9775C33.3173 12.8317 33.6084 12.7089 33.908 12.6104C34.0419 12.6637 34.1859 12.7594 34.2688 12.8393C33.9066 12.9249 33.5592 13.0205 33.2098 13.1628C33.2444 13.2021 33.2797 13.2625 33.2971 13.2998C33.6689 13.1721 34.0486 13.0691 34.4339 12.9913C34.5047 13.0672 34.589 13.189 34.6333 13.3018C34.2053 13.3467 33.7146 13.4213 33.3854 13.5152C33.4052 13.5713 33.4176 13.625 33.428 13.6767C33.8538 13.5938 34.2852 13.5425 34.7185 13.5233C34.7588 13.6488 34.7799 13.7837 34.7806 13.9213C34.3361 13.897 33.8904 13.9075 33.4475 13.9529C33.4478 14.0049 33.4408 14.1076 33.4337 14.1717C33.8788 14.1554 34.3244 14.171 34.7672 14.2184C34.7507 14.3483 34.7185 14.5171 34.6766 14.6624C34.2275 14.5601 33.818 14.5104 33.3666 14.4809C33.3446 14.5792 33.3118 14.6749 33.2689 14.7661C33.6922 14.8437 34.1154 14.9608 34.5232 15.1068C34.4668 15.2394 34.4017 15.3686 34.3305 15.4945C34.0248 15.3498 33.4827 15.1481 33.1266 15.0481C33.0559 15.1902 32.9703 15.3245 32.8712 15.4485C33.1273 15.573 33.618 15.8499 33.9529 16.0661C33.8727 16.1741 33.7831 16.2856 33.6881 16.3849C33.3661 16.1298 33.0317 15.8906 32.6863 15.6683C32.5735 15.7972 32.4329 15.9375 32.3016 16.0493V16.0895L33.1129 16.9545C33.0244 17.0348 32.9316 17.1104 32.8349 17.1807L32.3016 16.4987V17.7033C33.1259 17.219 33.961 16.4258 34.4299 15.5837C34.8128 14.9105 35.1018 13.9979 34.7319 13.2236C34.6655 13.1041 34.596 12.9873 34.4906 12.8836ZM36.9149 12.8913L37.1546 12.9202C37.3949 13.0447 37.6144 13.2202 37.8131 13.4293C37.8859 13.5099 37.9641 13.5901 38.0155 13.6767C37.8174 13.621 37.6251 13.5532 37.421 13.5092C37.4902 13.6169 37.5399 13.723 37.5909 13.8472C37.8188 13.9116 38.0443 13.9915 38.2662 14.071C38.4081 14.3399 38.5119 14.6305 38.5609 14.936C38.3061 14.8084 38.0507 14.6839 37.7862 14.5802C37.8067 14.7299 37.8131 14.8843 37.8067 15.0326C38.0953 15.1655 38.4192 15.3434 38.6196 15.4713C38.6263 15.6834 38.6065 16.0593 38.5444 16.3C38.3138 16.1312 37.9806 15.915 37.7117 15.7764C37.6748 15.9838 37.5771 16.3077 37.4731 16.5359C37.7557 16.7262 38.0349 16.9219 38.3028 17.1515C38.2182 17.3754 38.1183 17.5932 38.0037 17.8033C37.7369 17.5745 37.463 17.3541 37.1824 17.1424C37.023 17.4626 36.8287 17.7643 36.6031 18.0419C36.8733 18.2888 37.1364 18.5434 37.3922 18.8052C37.2653 18.9898 37.1233 19.172 36.9572 19.3439C36.7102 19.0787 36.4571 18.8068 36.1983 18.5538C35.9302 18.8636 35.6274 19.1874 35.3099 19.4543C35.5585 19.7224 35.7892 20.0065 36.0006 20.3048C35.8432 20.4394 35.6962 20.5672 35.5381 20.682L34.8716 19.8225C34.4597 20.1423 34.0234 20.4078 33.5844 20.6471L33.9348 21.2311H35.0196C36.6766 20.0984 38.1749 18.4175 38.6357 16.541C38.9146 15.3921 38.6498 14.2177 37.858 13.3625C37.4365 12.9074 36.9679 12.7544 36.6377 12.653C36.7219 12.7087 36.8199 12.7943 36.9149 12.8913ZM32.302 12.796V12.9963L32.4144 12.9178C32.5074 12.9406 32.6141 12.9866 32.6849 13.0339C32.556 13.1095 32.4231 13.185 32.303 13.2662V13.3924C32.4647 13.2906 32.63 13.1948 32.7987 13.1051C32.8591 13.1434 32.9135 13.2001 32.9554 13.2571C32.7403 13.3427 32.4409 13.4891 32.3016 13.5632V13.6918C32.5399 13.5767 32.8034 13.4595 33.0538 13.382C33.0867 13.439 33.1182 13.5112 33.131 13.577C32.8645 13.6283 32.5557 13.7408 32.303 13.8388V13.9573C32.5691 13.8646 32.9293 13.77 33.1639 13.7321C33.182 13.8082 33.1833 13.9049 33.184 13.9747C32.8884 14.002 32.5947 14.0467 32.3043 14.1086V14.2436C32.5604 14.209 32.9853 14.1778 33.1702 14.1848C33.1551 14.2782 33.1305 14.3697 33.0967 14.458C32.8327 14.435 32.5676 14.4254 32.3026 14.4292C32.3016 14.4292 32.3016 14.6094 32.3016 14.6104C32.5356 14.6238 32.7906 14.6799 32.9961 14.7188C32.9619 14.8036 32.9202 14.8851 32.8715 14.9625C32.7111 14.9088 32.4768 14.8346 32.3016 14.8068V15.1632C32.4141 15.2129 32.5758 15.2941 32.6309 15.3297C32.5839 15.3983 32.53 15.462 32.4701 15.5196C32.3959 15.4693 32.3013 15.4139 32.3013 15.4139L32.3016 15.8674C32.4892 15.6841 32.6735 15.4911 32.8192 15.2864C33.182 14.7631 33.4693 14.0845 33.2082 13.4293C33.0504 13.0705 32.6678 12.8446 32.302 12.796ZM38.3783 13.7982C38.4541 13.9264 38.5266 14.058 38.587 14.1922L38.8757 14.3261C39.0811 14.6601 39.2445 15.0132 39.3335 15.3958C39.1744 15.2954 39.012 15.1911 38.8495 15.1018C38.8747 15.2756 38.8811 15.4327 38.8847 15.616C39.0683 15.7438 39.259 15.8788 39.4359 16.0372C39.4512 16.3502 39.4328 16.6639 39.3808 16.9729C39.1962 16.7925 38.9974 16.6272 38.7864 16.4785C38.7367 16.7528 38.6377 17.0625 38.5229 17.3401C38.744 17.5199 38.9514 17.716 39.1432 17.9268C39.0606 18.1676 38.9577 18.401 38.8354 18.6243C38.6391 18.4125 38.4239 18.1906 38.2091 18.0037C38.0775 18.2604 37.8107 18.6743 37.5758 18.9934C37.7858 19.2135 37.9888 19.4403 38.1843 19.6734C38.0416 19.8697 37.8875 20.0574 37.7228 20.2356C37.5238 20.0057 37.3371 19.7708 37.1294 19.5469C36.8152 19.9124 36.5518 20.198 36.1755 20.5145C36.3984 20.7834 36.7333 21.2311 36.7333 21.2311H36.9236C37.2777 20.913 37.6108 20.5723 37.9208 20.2111C38.68 19.2844 39.2798 18.292 39.4896 17.1397C39.7171 15.9308 39.3993 14.7544 38.6005 13.8807L38.3783 13.7982ZM35.9241 13.0641L35.9211 13.0729C36.2681 13.4995 36.5427 13.9569 36.6863 14.4654L36.6837 14.4718L36.4158 14.2694C36.4497 14.4758 36.4769 14.6671 36.484 14.8836C36.6098 14.9793 36.7481 15.1035 36.8562 15.2333C36.8743 15.5848 36.8743 15.9583 36.8135 16.304C36.6941 16.1429 36.587 16.0285 36.399 15.8408C36.3574 16.0959 36.2628 16.497 36.147 16.7662C36.3108 16.9441 36.4793 17.1693 36.5846 17.3341C36.5232 17.5452 36.4037 17.8291 36.2769 18.0671C36.1255 17.8728 36.0191 17.714 35.8214 17.4821C35.6215 17.8528 35.3951 18.2084 35.1438 18.5464C35.3156 18.7494 35.4724 18.9616 35.6234 19.1767C35.4801 19.3783 35.3261 19.5721 35.1622 19.7574C35.0052 19.5422 34.839 19.3277 34.6762 19.1156C34.4483 19.3801 34.2191 19.6499 33.9419 19.8929H35.2196C36.0416 18.9384 36.6383 17.8825 36.8803 16.6887C37.1321 15.4854 36.9337 14.2123 36.1591 13.3048C36.0866 13.2246 36.0114 13.1235 35.9241 13.0641ZM37.0143 14.7366C37.0633 14.9668 37.0851 15.1568 37.1139 15.4582C37.2093 15.5626 37.3234 15.7371 37.3234 15.7371C37.3379 16.0955 37.3103 16.4542 37.2411 16.8061L37.0478 16.5675C36.9895 16.9031 36.9012 17.2328 36.784 17.5526L36.9995 17.9265C36.9361 18.1487 36.8132 18.4568 36.6951 18.7035C36.6152 18.5732 36.5387 18.4303 36.4571 18.3151C36.2588 18.6955 36.0337 19.0612 35.7835 19.4096L36.0825 19.8929H36.1517C36.8743 18.8193 37.359 17.6358 37.409 16.2899C37.4331 15.7261 37.2566 15.236 37.0445 14.7665L37.0143 14.7366ZM36.4977 14.9944C36.4746 15.1743 36.4605 15.3565 36.4286 15.5284L36.3712 15.4508C36.3128 15.8103 36.2196 16.1633 36.0929 16.5047L36.1819 16.7504C36.1091 16.9981 36.0168 17.2639 35.8979 17.5418C35.8649 17.4498 35.8218 17.3616 35.7694 17.279C35.6083 17.6033 35.4281 17.9176 35.2297 18.2205L35.708 18.2201C35.9691 17.7129 36.1755 17.1792 36.3235 16.6282C36.4497 16.1124 36.5635 15.5602 36.5007 14.9944H36.4977ZM36.5286 16.3127C36.4276 16.8387 36.2463 17.4898 36.0936 17.9547C36.0751 17.9182 36.0579 17.8812 36.0419 17.8436C35.9708 17.9882 35.862 18.2201 35.862 18.2201H36.1077C36.3198 17.7207 36.4682 17.0008 36.5286 16.3127ZM28.91 17.813C28.6113 17.9493 28.3126 18.0624 27.9988 18.1631V18.2191H29.1379L28.91 17.813ZM39.023 16.3889C38.9049 16.4738 38.7542 16.6078 38.5719 16.7202H39.2412C39.2412 16.7202 39.0959 16.5037 39.023 16.3889ZM43.0755 20.8042C43.0755 20.5642 43.2668 20.3729 43.5088 20.3729C43.7504 20.3729 43.9417 20.5642 43.9417 20.8042C43.9417 21.0438 43.7504 21.2348 43.5088 21.2348C43.4519 21.2353 43.3956 21.2246 43.3429 21.2032C43.2903 21.1818 43.2425 21.1501 43.2021 21.11C43.1618 21.07 43.1299 21.0223 43.1081 20.9698C43.0864 20.9173 43.0753 20.861 43.0755 20.8042ZM43.8756 20.8042C43.8756 20.6008 43.7065 20.4397 43.5088 20.4397C43.3111 20.4397 43.1419 20.6008 43.1419 20.8042C43.1419 21.0069 43.3111 21.1687 43.5088 21.1687C43.7065 21.1687 43.8756 21.0069 43.8756 20.8042ZM43.7142 21.0375H43.6346L43.4933 20.8196H43.4135V21.0375H43.3477V20.5652H43.5531C43.638 20.5652 43.7209 20.5887 43.7209 20.6897C43.7209 20.7827 43.6558 20.8173 43.5715 20.8196L43.7142 21.0375ZM38.8022 16.1046C38.8606 16.1046 38.9633 16.1157 38.9633 16.0405C38.9633 15.9922 38.8995 15.9828 38.8485 15.9828H38.7223V16.1046H38.8022ZM17.3699 15.0803C17.6824 15.0796 17.809 14.9064 17.8083 14.4832V12.8292C17.8076 12.759 17.821 12.5395 17.6989 12.4301C17.6079 12.3486 17.4723 12.3251 17.3528 12.3231V12.1787L18.8457 12.1083C18.8457 12.1083 18.8464 14.0351 18.8457 14.4882C18.8447 15.0461 19.0857 15.0796 19.2891 15.0793V15.2364H17.3699V15.0803ZM18.2946 11.7421C18.6172 11.7421 18.8779 11.4883 18.8779 11.1755C18.8779 10.8634 18.6172 10.61 18.2946 10.61C17.9727 10.61 17.7113 10.8634 17.7113 11.1755C17.7113 11.4883 17.9727 11.7421 18.2946 11.7421ZM12.8469 12.2016C13.1443 12.1912 14.3466 12.0794 14.3466 12.0794L14.3526 12.5724C14.751 12.2965 15.1746 12.0022 15.6757 12.0945C16.4167 12.2311 16.5601 12.8362 16.5591 13.2427C16.5591 13.2427 16.5584 14.4835 16.5591 14.6376C16.5601 14.8252 16.6467 15.081 16.9826 15.0816C16.982 15.081 16.983 15.236 16.983 15.236H15.0675V15.08C15.245 15.081 15.5008 15.0148 15.5018 14.6148C15.5025 14.3889 15.5011 13.5525 15.5018 13.2595C15.5025 12.9665 15.3733 12.7792 15.1679 12.6986C14.8564 12.5771 14.555 12.756 14.3563 12.9577L14.3566 14.6094C14.3566 14.798 14.407 15.081 14.7785 15.0803L14.7778 15.2364H12.8829V15.0803C13.0953 15.081 13.3054 14.9752 13.3068 14.597V12.8379C13.3078 12.4909 13.2245 12.3432 12.8473 12.3462L12.8469 12.2016ZM19.5704 12.3264C20.0778 11.9841 20.5987 11.4467 20.9538 11.0181H21.0673V12.1237H22.0064V12.4728H21.0623C21.0623 12.4728 21.0606 13.5582 21.0623 14.2281C21.0633 14.6275 21.2281 14.8262 21.5274 14.8259C21.6752 14.8228 21.816 14.7622 21.9198 14.6571L22.0833 14.7279C21.8352 15.1374 21.4576 15.326 21.0045 15.3266C20.3108 15.328 20.0154 14.8692 20.0168 14.3657C20.0174 13.9371 20.0174 12.4717 20.0174 12.4717H19.5704V12.3264ZM11.9642 14.5272C11.9538 14.8933 12.1847 15.0652 12.4741 15.0645V15.2213H10.8476V14.7608C10.3189 15.2656 10.0968 15.3266 9.63996 15.3266C8.73711 15.3266 8.16452 14.7937 8.16452 13.966V11.8085C8.16452 11.444 8.0692 11.3662 7.62146 11.2608V11.1144H9.74099V11.2608C9.2711 11.3662 9.19759 11.4652 9.19759 11.8438V14.1415C9.19759 14.6463 9.41979 14.9481 9.91887 14.9481C10.2861 14.9481 10.4512 14.7725 10.8476 14.3798V11.8085C10.8476 11.437 10.7523 11.3662 10.3045 11.2608V11.1144H12.424V11.2591C12.0022 11.2487 11.9642 11.4645 11.9642 11.8928V14.5272Z" fill="#275DA6"/>
<rect x="0.5" y="0.5" width="47" height="31" rx="3.5" stroke="#F6F6F6"/>
</svg>
