<svg width="38" height="48" viewBox="0 0 38 48" fill="none" xmlns="http://www.w3.org/2000/svg">
<rect width="38" height="48" fill="white" fill-opacity="0.01"/>
<g clip-path="url(#clip0_0_308)">
<path d="M19 17C15.1344 17 12 20.1344 12 24C12 27.8656 15.1344 31 19 31C22.8656 31 26 27.8656 26 24C26 20.1344 22.8656 17 19 17ZM19 29.8125C15.7906 29.8125 13.1875 27.2094 13.1875 24C13.1875 20.7906 15.7906 18.1875 19 18.1875C22.2094 18.1875 24.8125 20.7906 24.8125 24C24.8125 27.2094 22.2094 29.8125 19 29.8125Z" fill="white"/>
<path d="M20.7435 20.9479C20.2748 20.537 19.656 20.312 18.9998 20.312C18.3435 20.312 17.7248 20.5386 17.256 20.9479C16.7685 21.3745 16.4998 21.9479 16.4998 22.562V22.6808C16.4998 22.7495 16.556 22.8058 16.6248 22.8058H17.3748C17.4435 22.8058 17.4998 22.7495 17.4998 22.6808V22.562C17.4998 21.8729 18.1732 21.312 18.9998 21.312C19.8263 21.312 20.4998 21.8729 20.4998 22.562C20.4998 23.0479 20.156 23.4933 19.6232 23.6979C19.2919 23.8245 19.0107 24.0464 18.8091 24.337C18.6044 24.6339 18.4982 24.9901 18.4982 25.3511V25.687C18.4982 25.7558 18.5544 25.812 18.6232 25.812H19.3732C19.4419 25.812 19.4982 25.7558 19.4982 25.687V25.3323C19.499 25.1806 19.5455 25.0327 19.6316 24.9079C19.7177 24.783 19.8395 24.687 19.981 24.6323C20.9029 24.2776 21.4982 23.4651 21.4982 22.562C21.4998 21.9479 21.231 21.3745 20.7435 20.9479ZM18.3748 27.437C18.3748 27.6028 18.4406 27.7617 18.5578 27.879C18.675 27.9962 18.834 28.062 18.9998 28.062C19.1655 28.062 19.3245 27.9962 19.4417 27.879C19.5589 27.7617 19.6248 27.6028 19.6248 27.437C19.6248 27.2713 19.5589 27.1123 19.4417 26.9951C19.3245 26.8779 19.1655 26.812 18.9998 26.812C18.834 26.812 18.675 26.8779 18.5578 26.9951C18.4406 27.1123 18.3748 27.2713 18.3748 27.437Z" fill="white"/>
</g>
<defs>
<clipPath id="clip0_0_308">
<rect width="14" height="14" fill="white" transform="translate(12 17)"/>
</clipPath>
</defs>
</svg>
